# xmcd
#
# Track frame offsets:
# 150
# 15425
# 28625
# 46260
# 63346
# 76929
# 90385
# 105753
# 120853
# 132325
# 144806
# 159533
# 172817
# 187319
# 202613
# 215786
# 231701
# 249285
#
# Disc length: 3506 seconds
#
#
# Revision: 0
# Processed by: cddbd v1.5.2PL0 Copyright (c) Steve Scherf et al.
# Submitted via: FreeRIP 2.95 
#
DISCID=dc0db012
DTITLE=Gilberto and Gilmar - Ao Vivo 
DYEAR=2006
DGENRE=Country
TTITLE0=Tadim Tadim
TTITLE1=Musica da Saudade
TTITLE2=O abajur/ Pobre de Mim/ Sempre Vou Lembrar de voce
TTITLE3=Tá Ruim mais Tá Bão
TTITLE4=Só mais uma Vez
TTITLE5=Paixão
TTITLE6=O pinguço/ Homem Passaro - Amor Amor Amor
TTITLE7=Luz do Amanhecer
TTITLE8=Assino com X
TTITLE9=Fome do Amor
TTITLE10=Mais que Paixão
TTITLE11=Capa de Revista
TTITLE12=Palavras de Amor
TTITLE13=Hoje Eu Topo Tudo que Vier/ Quem Ama não Vê Defeito
TTITLE14=Tá embolado o meio de Campo
TTITLE15=Quebrando Tudo
TTITLE16=Praia da Solidão
TTITLE17=Arrepia Arrepia
EXTD=emerson@betim.mg.gov.br
EXTT0=
EXTT1=
EXTT2=
EXTT3=
EXTT4=
EXTT5=
EXTT6=
EXTT7=
EXTT8=
EXTT9=
EXTT10=
EXTT11=
EXTT12=
EXTT13=
EXTT14=
EXTT15=
EXTT16=
EXTT17=
PLAYORDER=
